# xmcd
#
# Track frame offsets:
#	150
#	10881
#	22615
#	36543
#	52115
#	61933
#	74600
#	87407
#	97901
#	109349
#	123591
#	137401
#	149992
#	163056
#	175814
#	185925
#	201177
#	212925
#	223224
#	238044
#
# Disc length: 3382 seconds
# Revision: 0
# Processed by: cddbd v1.5.2PL0 Copyright (c) Steve Scherf et al.
# Submitted via: dBpowerAMP V12.0
#
DISCID=3e0d3414
DTITLE=Tammy Wynette - I Still Believe In Fairy Tales and 'Til I Can Make It On My Own
DYEAR=2016
DGENRE=Country
TTITLE0=I Still Believe In Fairy Tales
TTITLE1=I Did My Best (To Fall In Love Last Night)
TTITLE2=Brown Paper Bag
TTITLE3=I Just Had You On My Mind
TTITLE4=Dallas
TTITLE5=I'll Take What You Can Give Me (When You Can)
TTITLE6=I'm Not A Has-Been (I Just Never Was)
TTITLE7=The Man From Bowling Green
TTITLE8=The Bottle
TTITLE9=Your Memory's Gone To Rest
TTITLE10='Til I Can Make It On My Own
TTITLE11=Just In Case
TTITLE12=He's Just An Old Love Turned Memory
TTITLE13=The World's Most Broken Heart
TTITLE14=If I Could Only Win Your Love
TTITLE15=The Heart
TTITLE16=You Can Be Replaced
TTITLE17=Love Is Something Good For Everybody
TTITLE18=Where Some Good Love Has Been
TTITLE19=Easy Come, Easy Go
EXTD=
EXTT0=
EXTT1=
EXTT2=
EXTT3=
EXTT4=
EXTT5=
EXTT6=
EXTT7=
EXTT8=
EXTT9=
EXTT10=
EXTT11=
EXTT12=
EXTT13=
EXTT14=
EXTT15=
EXTT16=
EXTT17=
EXTT18=
EXTT19=
PLAYORDER=
